<svg width="19" height="17" viewBox="0 0 19 17" fill="none" xmlns="http://www.w3.org/2000/svg">
<path d="M6.50069 9.5H4.00069C4.00069 9.5 2.50069 8.5 4.00069 6C5.50069 3.5 8.00069 2.5 8.00069 2.5L6.50069 0.5C6.50069 0.5 1.15262 2.5 0.500687 6C-0.151249 9.5 0.500687 16.5 0.500687 16.5H6.50069V9.5Z" fill="#E18585"/>
<path d="M17.2897 10H14.7897C14.7897 10 13.2897 9 14.7897 6.5C16.2897 4 18.7897 3 18.7897 3L17.2897 1C17.2897 1 11.9417 3 11.2897 6.5C10.6378 10 11.2897 17 11.2897 17H17.2897V10Z" fill="#E18585"/>
</svg>
